# xmcd
# 
# Track frame offsets:
#     150
#     10476
#     26606
#     34480
#     54251
#     69020
#     87957
#     115919
#     134178
#     151538
#     164637
#     181645
#     194215
#     207960
#     220802
#     233280
#     244225
#     259084
#     272118
#     284048
# 
# Disc length: 3941
# 
# Revision: 1
# Processed by: cddbd v1.5.2PL0 Copyright (c) Steve Scherf et al.
# Submitted via: fre:ac v1.0.27
# 
DISCID=240f6314
DTITLE=Various Artist - Jazz After Dark - Disc 1
DYEAR=2007
DGENRE=Jazz
TTITLE0=Tony Bennett - The Good Life
TTITLE1=Ella Fitzgerald and Buddy Bergman Orchestra - Let's Do It
TTITLE2=George Michael - My Baby Just Cares For Me
TTITLE3=Paul Anka - Walking in Memphis
TTITLE4=Danny Williams - I've Got You Under My Skin
TTITLE5=Charlie Hunter feat. Norah Jones - More Than This
TTITLE6=Stan Getz and Charlie Byrd - Samba De Uma Nota So
TTITLE7=Curtis Stigers - I'll Be Your Baby Tonight
TTITLE8=Oscar Peterson - Summertime
TTITLE9=Billie Holiday - That Ole Devil Called Love
TTITLE10=Lou Rawls - The Girl From Ipanema
TTITLE11=Dinah Washington - Teach Me Tonight
TTITLE12=Nelson Riddle and His Orchestra - Lamento
TTITLE13=Kay Starr - It Had To Be You
TTITLE14=Nat King Cole - Let There Be Love
TTITLE15=Vince Guraldi - Oh, Good Grief
TTITLE16=Eta James - A Sunday Kind Og Love
TTITLE17=Kenny Burrell and Jimmy Smith - Fever
TTITLE18=Sergio Mendez - Mas Que Nada
TTITLE19=Bryan Ferry - As Time Goes By
EXTD=YEAR: 2007
EXTT0=
EXTT1=
EXTT2=
EXTT3=
EXTT4=
EXTT5=
EXTT6=
EXTT7=
EXTT8=
EXTT9=
EXTT10=
EXTT11=
EXTT12=
EXTT13=
EXTT14=
EXTT15=
EXTT16=
EXTT17=
EXTT18=
EXTT19=
PLAYORDER=
